<?xml version="1.0" standalone="no"?>
<!DOCTYPE svg PUBLIC "-//W3C//DTD SVG 20010904//EN"
 "http://www.w3.org/TR/2001/REC-SVG-20010904/DTD/svg10.dtd">
<svg version="1.0" xmlns="http://www.w3.org/2000/svg"
 width="275.000000pt" height="147.000000pt" viewBox="0 0 275.000000 147.000000"
 preserveAspectRatio="xMidYMid meet">

<g transform="translate(0.000000,147.000000) scale(0.100000,-0.100000)"
fill="#000000" stroke="none">
<path d="M1053 1452 c-133 -47 -224 -159 -240 -293 -5 -46 -4 -51 13 -47 14 2
21 15 26 51 10 71 43 131 104 186 71 65 130 85 233 79 123 -7 208 -64 265
-176 13 -26 27 -69 31 -95 5 -32 12 -47 23 -47 24 0 8 93 -28 167 -56 114
-167 184 -300 190 -55 3 -89 -1 -127 -15z"/>
<path d="M759 1051 c-21 -22 -29 -39 -29 -66 0 -51 44 -95 95 -95 51 0 95 44
95 95 0 27 -8 44 -29 66 -41 40 -91 40 -132 0z"/>
<path d="M1449 1051 c-21 -22 -29 -39 -29 -66 0 -51 44 -95 95 -95 51 0 95 44
95 95 0 27 -8 44 -29 66 -41 40 -91 40 -132 0z"/>
<path d="M1727 1054 c-4 -4 -7 -54 -7 -110 l0 -103 -32 -3 -33 -3 0 -70 0 -70
33 -3 32 -3 0 -93 c0 -158 40 -239 142 -290 43 -22 66 -26 135 -26 l83 0 0 69
0 69 -76 4 c-71 3 -78 6 -105 36 -28 31 -29 36 -29 132 l0 100 105 0 105 0 0
75 0 75 -105 0 -104 0 -3 108 -3 107 -65 3 c-36 2 -69 0 -73 -4z"/>
<path d="M70 649 l0 -370 223 3 224 3 41 28 c23 15 54 46 69 68 50 76 40 208
-21 258 -13 11 -12 15 6 33 68 68 63 204 -10 282 -56 59 -85 66 -319 66 l-213
0 0 -371z m417 199 c29 -27 30 -71 3 -98 -18 -18 -33 -20 -145 -20 l-125 0 0
70 0 70 122 0 c111 0 124 -2 145 -22z m3 -298 c29 -29 26 -74 -6 -99 -24 -19
-40 -21 -145 -21 l-119 0 0 70 0 70 125 0 c112 0 127 -2 145 -20z"/>
<path d="M2338 846 c-125 -34 -208 -146 -208 -279 0 -92 24 -152 85 -213 86
-86 210 -108 316 -56 l44 22 42 -22 c34 -18 47 -20 79 -12 48 12 51 24 11 49
-45 29 -54 62 -34 126 36 109 15 216 -59 298 -73 82 -178 115 -276 87z m142
-164 c33 -24 60 -79 60 -120 0 -67 -54 -130 -118 -139 -107 -14 -182 123 -119
218 44 66 118 83 177 41z"/>
<path d="M757 834 c-4 -4 -7 -130 -7 -281 l0 -273 75 0 75 0 -2 278 -3 277
-65 3 c-36 2 -69 0 -73 -4z"/>
<path d="M1007 833 c-4 -3 -7 -129 -7 -280 l0 -273 75 0 75 0 0 173 c0 148 3
175 18 193 28 35 56 44 137 44 l76 0 -3 73 -3 72 -59 3 c-75 4 -151 -12 -197
-42 l-35 -24 -23 34 c-23 33 -40 42 -54 27z"/>
<path d="M1447 834 c-4 -4 -7 -130 -7 -281 l0 -273 75 0 75 0 -2 278 -3 277
-65 3 c-36 2 -69 0 -73 -4z"/>
</g>
</svg>
